# xmcd
# Copyright (C) 1995-1998 Ti Kan
#
# Track frame offsets:
#       150
#       14127
#       26508
#       40469
#       55641
#       66845
#       80131
#       92201
#       104859
#       115064
#       126517
#       137910
#       152147
#       164799
#       176142
#       189212
#       200821
#       214833
#       226747
#       239257
#       249345
#       262077
#       274386
#       286747
#       298968
#       308970
#
# Disc length: 4259 seconds
#
# Revision: 0
# Processed by: cddbd v1.5.2PL0 Copyright (c) Steve Scherf et al.
# Submitted via: CD-Import v1.0
#
DISCID=9f10a11a
DTITLE=Vico Torriani - Selection 51-64
DYEAR=1900
DGENRE=
TTITLE0=Addio, Donna Grazia
TTITLE1=Domino
TTITLE2=Du Schwarzer Zigeuner
TTITLE3=Bella Bella Donna
TTITLE4=Bonsoir, Bonsoir
TTITLE5=Ein Vis-À-Vis Wie Sie
TTITLE6=In Der Schweiz
TTITLE7=Zwei Spuren Im Schnee
TTITLE8=Grüss Die Damen Aus Der Bar Von Johnny Miller
TTITLE9=Domani
TTITLE10=Verlieb Dich In Lissabon
TTITLE11=Mannequin Aus Paris
TTITLE12=Schön Muss Es Sein Ein Torero Zu Sein
TTITLE13=Siebenmal In Der Woche
TTITLE14=Ananas Aus Caracas
TTITLE15=Ja Wenn Wir Männer Lange Fragen
TTITLE16=Loana-Oh
TTITLE17=Schön Und Kaffeebraun
TTITLE18=Du Bist Der Stern
TTITLE19=Die Teenager Von Tampico
TTITLE20=Ein Echter Italiano
TTITLE21=Kalkutta Am Ganges
TTITLE22=Wie Kann Nur Der Name Sein
TTITLE23=Bonsoir Herr Kommissar
TTITLE24=Musica Für Die Verliebten
TTITLE25=Daran Sind Die Männer Schuld
EXTD=
EXTT0=
EXTT1=
EXTT2=
EXTT3=
EXTT4=
EXTT5=
EXTT6=
EXTT7=
EXTT8=
EXTT9=
EXTT10=
EXTT11=
EXTT12=
EXTT13=
EXTT14=
EXTT15=
EXTT16=
EXTT17=
EXTT18=
EXTT19=
EXTT20=
EXTT21=
EXTT22=
EXTT23=
EXTT24=
EXTT25=
PLAYORDER=
